<svg width="24" height="24" viewBox="0 0 24 24" fill="none" xmlns="http://www.w3.org/2000/svg">
<path d="M9.08308 12.0728C9.08308 10.4201 10.4233 9.08 12.0769 9.08C13.7306 9.08 15.0715 10.4201 15.0715 12.0728C15.0715 13.7254 13.7306 15.0655 12.0769 15.0655C10.4233 15.0655 9.08308 13.7254 9.08308 12.0728ZM7.46429 12.0728C7.46429 14.6188 9.52936 16.6826 12.0769 16.6826C14.6245 16.6826 16.6895 14.6188 16.6895 12.0728C16.6895 9.52672 14.6245 7.4629 12.0769 7.4629C9.52936 7.4629 7.46429 9.52672 7.46429 12.0728ZM15.7942 7.28011C15.7941 7.49318 15.8572 7.7015 15.9756 7.8787C16.094 8.05591 16.2623 8.19406 16.4592 8.27568C16.6562 8.3573 16.8729 8.37872 17.082 8.33723C17.2911 8.29575 17.4832 8.19322 17.6341 8.04262C17.7849 7.89201 17.8876 7.7001 17.9293 7.49114C17.971 7.28218 17.9497 7.06556 17.8682 6.86867C17.7867 6.67179 17.6486 6.50348 17.4714 6.38504C17.2942 6.26659 17.0858 6.20332 16.8726 6.20324H16.8721C16.5864 6.20337 16.3123 6.31686 16.1102 6.51877C15.9081 6.72068 15.7944 6.99451 15.7942 7.28011ZM8.44781 19.3803C7.57201 19.3404 7.09599 19.1946 6.77965 19.0714C6.36025 18.9083 6.06102 18.7139 5.7464 18.3999C5.43178 18.0859 5.23703 17.7871 5.07448 17.368C4.95116 17.052 4.80528 16.5761 4.76546 15.7008C4.72191 14.7545 4.71322 14.4703 4.71322 12.0728C4.71322 9.67539 4.72263 9.39192 4.76546 8.44482C4.80535 7.56955 4.95231 7.0946 5.07448 6.77766C5.23775 6.35851 5.43221 6.05945 5.7464 5.74503C6.06058 5.4306 6.35954 5.23596 6.77965 5.07351C7.09585 4.95026 7.57201 4.80447 8.44781 4.76468C9.39468 4.72115 9.67912 4.71246 12.0769 4.71246C14.4747 4.71246 14.7594 4.72187 15.7071 4.76468C16.5829 4.80454 17.0581 4.95141 17.3753 5.07351C17.7946 5.23596 18.0939 5.43103 18.4085 5.74503C18.7231 6.05902 18.9172 6.35851 19.0804 6.77766C19.2037 7.09367 19.3496 7.56955 19.3894 8.44482C19.433 9.39192 19.4417 9.67539 19.4417 12.0728C19.4417 14.4703 19.433 14.7537 19.3894 15.7008C19.3496 16.5761 19.203 17.0518 19.0804 17.368C18.9172 17.7871 18.7227 18.0862 18.4085 18.3999C18.0943 18.7136 17.7946 18.9083 17.3753 19.0714C17.0591 19.1947 16.5829 19.3405 15.7071 19.3803C14.7602 19.4238 14.4758 19.4325 12.0769 19.4325C9.67804 19.4325 9.3944 19.4238 8.44781 19.3803ZM8.37343 3.14958C7.41715 3.19311 6.7637 3.34465 6.19303 3.56657C5.60202 3.79575 5.10171 4.10321 4.60176 4.60208C4.10181 5.10094 3.79495 5.60174 3.56563 6.19239C3.34358 6.76308 3.19194 7.41578 3.14839 8.37149C3.10413 9.32872 3.09399 9.63474 3.09399 12.0728C3.09399 14.5108 3.10413 14.8168 3.14839 15.774C3.19194 16.7298 3.34358 17.3824 3.56563 17.9531C3.79495 18.5434 4.10188 19.0448 4.60176 19.5434C5.10164 20.0421 5.60202 20.3491 6.19303 20.5789C6.76477 20.8009 7.41715 20.9524 8.37343 20.9959C9.33173 21.0394 9.63744 21.0503 12.0769 21.0503C14.5164 21.0503 14.8226 21.0402 15.7804 20.9959C16.7367 20.9524 17.3898 20.8009 17.9608 20.5789C18.5514 20.3491 19.0521 20.0423 19.5521 19.5434C20.052 19.0446 20.3582 18.5434 20.5882 17.9531C20.8102 17.3824 20.9626 16.7297 21.0054 15.774C21.049 14.8161 21.0591 14.5108 21.0591 12.0728C21.0591 9.63474 21.049 9.32872 21.0054 8.37149C20.9619 7.41571 20.8102 6.76272 20.5882 6.19239C20.3582 5.6021 20.0512 5.10173 19.5521 4.60208C19.0529 4.10242 18.5514 3.79575 17.9615 3.56657C17.3898 3.34465 16.7367 3.19239 15.7811 3.14958C14.8233 3.10606 14.5171 3.09521 12.0776 3.09521C9.63816 3.09521 9.33173 3.10534 8.37343 3.14958Z" fill="white"/>
<path d="M9.08308 12.0728C9.08308 10.4201 10.4233 9.08 12.0769 9.08C13.7306 9.08 15.0715 10.4201 15.0715 12.0728C15.0715 13.7254 13.7306 15.0655 12.0769 15.0655C10.4233 15.0655 9.08308 13.7254 9.08308 12.0728ZM7.46429 12.0728C7.46429 14.6188 9.52936 16.6826 12.0769 16.6826C14.6245 16.6826 16.6895 14.6188 16.6895 12.0728C16.6895 9.52672 14.6245 7.4629 12.0769 7.4629C9.52936 7.4629 7.46429 9.52672 7.46429 12.0728ZM15.7942 7.28011C15.7941 7.49318 15.8572 7.7015 15.9756 7.8787C16.094 8.05591 16.2623 8.19406 16.4592 8.27568C16.6562 8.3573 16.8729 8.37872 17.082 8.33723C17.2911 8.29575 17.4832 8.19322 17.6341 8.04262C17.7849 7.89201 17.8876 7.7001 17.9293 7.49114C17.971 7.28218 17.9497 7.06556 17.8682 6.86867C17.7867 6.67179 17.6486 6.50348 17.4714 6.38504C17.2942 6.26659 17.0858 6.20332 16.8726 6.20324H16.8721C16.5864 6.20337 16.3123 6.31686 16.1102 6.51877C15.9081 6.72068 15.7944 6.99451 15.7942 7.28011ZM8.44781 19.3803C7.57201 19.3404 7.09599 19.1946 6.77965 19.0714C6.36025 18.9083 6.06102 18.7139 5.7464 18.3999C5.43178 18.0859 5.23703 17.7871 5.07448 17.368C4.95116 17.052 4.80528 16.5761 4.76546 15.7008C4.72191 14.7545 4.71322 14.4703 4.71322 12.0728C4.71322 9.67539 4.72263 9.39192 4.76546 8.44482C4.80535 7.56955 4.95231 7.0946 5.07448 6.77766C5.23775 6.35851 5.43221 6.05945 5.7464 5.74503C6.06058 5.4306 6.35954 5.23596 6.77965 5.07351C7.09585 4.95026 7.57201 4.80447 8.44781 4.76468C9.39468 4.72115 9.67912 4.71246 12.0769 4.71246C14.4747 4.71246 14.7594 4.72187 15.7071 4.76468C16.5829 4.80454 17.0581 4.95141 17.3753 5.07351C17.7946 5.23596 18.0939 5.43103 18.4085 5.74503C18.7231 6.05902 18.9172 6.35851 19.0804 6.77766C19.2037 7.09367 19.3496 7.56955 19.3894 8.44482C19.433 9.39192 19.4417 9.67539 19.4417 12.0728C19.4417 14.4703 19.433 14.7537 19.3894 15.7008C19.3496 16.5761 19.203 17.0518 19.0804 17.368C18.9172 17.7871 18.7227 18.0862 18.4085 18.3999C18.0943 18.7136 17.7946 18.9083 17.3753 19.0714C17.0591 19.1947 16.5829 19.3405 15.7071 19.3803C14.7602 19.4238 14.4758 19.4325 12.0769 19.4325C9.67804 19.4325 9.3944 19.4238 8.44781 19.3803ZM8.37343 3.14958C7.41715 3.19311 6.7637 3.34465 6.19303 3.56657C5.60202 3.79575 5.10171 4.10321 4.60176 4.60208C4.10181 5.10094 3.79495 5.60174 3.56563 6.19239C3.34358 6.76308 3.19194 7.41578 3.14839 8.37149C3.10413 9.32872 3.09399 9.63474 3.09399 12.0728C3.09399 14.5108 3.10413 14.8168 3.14839 15.774C3.19194 16.7298 3.34358 17.3824 3.56563 17.9531C3.79495 18.5434 4.10188 19.0448 4.60176 19.5434C5.10164 20.0421 5.60202 20.3491 6.19303 20.5789C6.76477 20.8009 7.41715 20.9524 8.37343 20.9959C9.33173 21.0394 9.63744 21.0503 12.0769 21.0503C14.5164 21.0503 14.8226 21.0402 15.7804 20.9959C16.7367 20.9524 17.3898 20.8009 17.9608 20.5789C18.5514 20.3491 19.0521 20.0423 19.5521 19.5434C20.052 19.0446 20.3582 18.5434 20.5882 17.9531C20.8102 17.3824 20.9626 16.7297 21.0054 15.774C21.049 14.8161 21.0591 14.5108 21.0591 12.0728C21.0591 9.63474 21.049 9.32872 21.0054 8.37149C20.9619 7.41571 20.8102 6.76272 20.5882 6.19239C20.3582 5.6021 20.0512 5.10173 19.5521 4.60208C19.0529 4.10242 18.5514 3.79575 17.9615 3.56657C17.3898 3.34465 16.7367 3.19239 15.7811 3.14958C14.8233 3.10606 14.5171 3.09521 12.0776 3.09521C9.63816 3.09521 9.33173 3.10534 8.37343 3.14958Z" fill="white"/>
</svg>
