<svg width="24" height="24" viewBox="0 0 24 24" fill="none" xmlns="http://www.w3.org/2000/svg">
<path fill-rule="evenodd" clip-rule="evenodd" d="M21.0601 12.0748C21.0601 17.0371 17.0374 21.0598 12.0751 21.0598C7.11282 21.0598 3.09009 17.0371 3.09009 12.0748C3.09009 7.11257 7.11282 3.08984 12.0751 3.08984C17.0374 3.08984 21.0601 7.11257 21.0601 12.0748ZM12.9361 9.31783C11.3925 9.98457 6.94181 11.878 6.94181 11.878C5.88702 12.3048 6.50443 12.7048 6.50443 12.7048C6.50443 12.7048 7.40486 13.0248 8.17668 13.2648C8.94847 13.5049 9.36011 13.2382 9.36011 13.2382C9.36011 13.2382 11.161 12.0114 12.9875 10.7046C14.2739 9.79788 13.9652 10.5446 13.6564 10.8646C12.9875 11.558 11.8813 12.6515 10.9551 13.5315C10.5435 13.9049 10.7493 14.2249 10.9294 14.3849C11.4532 14.8444 12.6868 15.6799 13.2468 16.0592C13.402 16.1643 13.5055 16.2344 13.5278 16.2518C13.6564 16.3585 14.3768 16.8385 14.8142 16.7318C15.2515 16.6251 15.303 16.0117 15.303 16.0117C15.303 16.0117 15.6374 13.8249 15.9461 11.8247C16.0033 11.432 16.0605 11.0475 16.1138 10.689C16.2524 9.75716 16.3649 9.00075 16.3835 8.73111C16.4607 7.82438 15.5345 8.19772 15.5345 8.19772C15.5345 8.19772 13.5278 9.05115 12.9361 9.31783Z" fill="white"/>
</svg>
