<svg width="24" height="24" viewBox="0 0 24 24" fill="none" xmlns="http://www.w3.org/2000/svg">
<path fill-rule="evenodd" clip-rule="evenodd" d="M15.5078 9.71866C16.609 10.5015 17.9278 10.9198 19.2789 10.9147V8.23699C19.0133 8.23772 18.7484 8.20929 18.489 8.15219V10.2854C17.1348 10.2878 15.8141 9.86478 14.7134 9.07601V14.5832C14.71 15.4869 14.4622 16.3728 13.9962 17.1471C13.5302 17.9213 12.8633 18.555 12.0663 18.981C11.2693 19.4069 10.3719 19.6092 9.46918 19.5665C8.56651 19.5237 7.69223 19.2375 6.93905 18.7381C7.63572 19.443 8.5259 19.9253 9.49685 20.124C10.4678 20.3226 11.4759 20.2286 12.3934 19.854C13.3109 19.4793 14.0966 18.8408 14.651 18.0193C15.2054 17.1978 15.5036 16.2303 15.5078 15.2392V9.71866ZM16.4851 6.98738C15.9251 6.38039 15.5815 5.60528 15.5078 4.78272V4.43462H14.758C14.8507 4.95748 15.0524 5.45498 15.3499 5.89479C15.6475 6.33459 16.0343 6.70686 16.4851 6.98738ZM8.67511 16.6183C8.41524 16.2784 8.25599 15.8725 8.21547 15.4466C8.17496 15.0208 8.25481 14.5921 8.44594 14.2093C8.63707 13.8266 8.9318 13.5052 9.29659 13.2818C9.66137 13.0583 10.0816 12.9417 10.5093 12.9453C10.7455 12.9453 10.9803 12.9814 11.2056 13.0524V10.2854C10.9423 10.2506 10.6767 10.2357 10.4112 10.2408V12.3919C9.86273 12.2186 9.26913 12.258 8.74844 12.5023C8.22775 12.7467 7.81812 13.1781 7.60101 13.7108C7.38391 14.2434 7.37524 14.8382 7.57674 15.377C7.77824 15.9157 8.17514 16.3588 8.68849 16.6183H8.67511Z" fill="white"/>
<path fill-rule="evenodd" clip-rule="evenodd" d="M14.713 9.05816C15.8137 9.84693 17.1344 10.27 18.4886 10.2676V8.13434C17.717 7.97121 17.0162 7.57004 16.4848 6.98738C16.0339 6.70686 15.6471 6.33459 15.3495 5.89479C15.052 5.45498 14.8503 4.95748 14.7576 4.43462H12.785V15.2392C12.7832 15.7175 12.6316 16.1832 12.3516 16.5709C12.0716 16.9586 11.6772 17.2489 11.2238 17.401C10.7704 17.5531 10.2807 17.5594 9.82355 17.4191C9.36637 17.2787 8.96463 16.9986 8.67472 16.6183C8.21528 16.3864 7.84734 16.0066 7.63026 15.54C7.41319 15.0734 7.35964 14.5473 7.47825 14.0466C7.59686 13.5458 7.88072 13.0996 8.28403 12.78C8.68734 12.4604 9.18657 12.2859 9.70118 12.2848C9.9373 12.2856 10.172 12.3217 10.3974 12.3919V10.2408C9.42341 10.2642 8.47745 10.5715 7.67563 11.1249C6.8738 11.6783 6.25102 12.4538 5.88372 13.3562C5.51642 14.2585 5.42059 15.2485 5.60799 16.2046C5.79539 17.1607 6.25787 18.0412 6.93866 18.7381C7.692 19.2411 8.56765 19.5303 9.47236 19.5749C10.3771 19.6195 11.2769 19.4179 12.0761 18.9915C12.8753 18.5652 13.5438 17.93 14.0105 17.1537C14.4773 16.3774 14.7247 15.489 14.7264 14.5832L14.713 9.05816Z" fill="white"/>
<path fill-rule="evenodd" clip-rule="evenodd" d="M18.4886 8.13434L18.4888 7.55844C17.7803 7.56146 17.0856 7.36355 16.4851 6.98738C17.0152 7.57172 17.7163 7.97322 18.4886 8.13434ZM14.758 4.43462C14.758 4.33197 14.7266 4.22468 14.7132 4.12203V3.77393H11.9909V14.583C11.9885 15.1883 11.7461 15.7678 11.3169 16.1946C10.8877 16.6213 10.3067 16.8603 9.70143 16.8591C9.34505 16.8609 8.99345 16.7785 8.67511 16.6183C8.96501 16.9986 9.36637 17.2787 9.82355 17.4191C10.2807 17.5594 10.7704 17.5531 11.2238 17.401C11.6772 17.2489 12.0716 16.9586 12.3516 16.5709C12.6316 16.1832 12.7832 15.7175 12.785 15.2392V4.43462H14.758ZM10.3976 10.2362V9.62476C9.27741 9.47258 8.13866 9.7043 7.16698 10.2822C6.19531 10.86 5.448 11.75 5.04685 12.8069C4.64571 13.8639 4.61437 15.0255 4.95796 16.1026C5.30155 17.1796 5.99993 18.1087 6.93905 18.7381C6.26341 18.0396 5.80572 17.1592 5.62214 16.2049C5.43857 15.2505 5.53692 14.2634 5.90518 13.3641C6.27344 12.4647 6.89566 11.6921 7.69584 11.1406C8.49602 10.5891 9.4395 10.2826 10.411 10.2585L10.3976 10.2362Z" fill="white"/>
</svg>
